<?xml version="1.0" standalone="no"?>
<!DOCTYPE svg PUBLIC "-//W3C//DTD SVG 20010904//EN"
 "http://www.w3.org/TR/2001/REC-SVG-20010904/DTD/svg10.dtd">
<svg version="1.0" xmlns="http://www.w3.org/2000/svg"
 width="1024.000000pt" height="1024.000000pt" viewBox="0 0 1024.000000 1024.000000"
 preserveAspectRatio="xMidYMid meet">

<g transform="translate(0.000000,1024.000000) scale(0.100000,-0.100000)"
fill="#000000" stroke="none">
<path d="M4215 9285 c-24 -23 -25 -28 -25 -174 l0 -149 -137 -4 c-114 -3 -146
-7 -185 -25 -66 -30 -133 -96 -165 -162 -25 -50 -29 -70 -33 -186 l-5 -130
-163 -5 c-160 -5 -164 -6 -182 -30 -26 -34 -25 -73 4 -107 l24 -28 154 -2 c84
-1 154 -5 156 -8 1 -3 2 -70 2 -150 l0 -145 -145 0 c-154 0 -186 -7 -204 -47
-17 -37 -13 -62 14 -88 24 -24 28 -25 180 -25 l155 0 0 -149 0 -150 -155 -3
c-172 -3 -188 -9 -201 -75 -5 -27 -1 -37 24 -63 l30 -30 151 0 150 0 3 -150 3
-150 -158 0 c-154 0 -158 -1 -182 -25 -33 -32 -33 -78 0 -110 24 -24 28 -25
183 -25 l160 0 1 -112 c1 -62 5 -124 8 -138 22 -94 113 -193 206 -229 48 -17
79 -21 182 -21 l125 0 0 -148 c0 -142 1 -149 23 -170 32 -30 81 -29 112 3 24
23 25 28 25 170 l0 145 155 0 155 0 0 -150 c0 -137 2 -152 20 -170 29 -29 84
-27 115 5 24 23 25 28 25 170 l0 145 155 0 155 0 0 -148 c0 -142 1 -149 23
-170 34 -32 89 -30 116 4 19 24 21 40 21 170 l0 144 155 0 155 0 0 -144 c0
-130 2 -146 21 -170 28 -35 80 -36 114 -1 24 23 25 29 25 169 l0 144 138 4
c128 3 141 5 195 33 68 34 130 97 160 163 17 38 22 71 25 175 l4 127 159 0
c156 0 160 1 184 25 16 15 25 36 25 55 0 19 -9 40 -25 55 -24 24 -28 25 -185
25 l-160 0 0 155 0 155 160 0 c157 0 161 1 185 25 16 15 25 36 25 55 0 19 -9
40 -25 55 -24 24 -28 25 -185 25 l-160 0 0 145 0 145 153 0 c165 0 188 6 208
56 11 31 -10 88 -39 103 -12 7 -83 11 -171 11 l-151 0 0 155 0 155 164 0 165
0 20 26 c28 36 27 79 -4 109 -24 24 -28 25 -184 25 l-159 0 -4 138 c-3 119 -6
143 -26 180 -35 67 -98 129 -161 159 -51 25 -69 28 -188 31 l-131 4 -4 150 -3
150 -28 24 c-31 26 -54 30 -90 13 -40 -18 -47 -50 -47 -199 l0 -140 -155 0
-155 0 0 150 c0 147 -1 152 -25 175 -15 16 -36 25 -55 25 -19 0 -40 -9 -55
-25 -24 -23 -25 -28 -25 -175 l0 -150 -155 0 -155 0 0 150 c0 147 -1 152 -25
175 -15 16 -36 25 -55 25 -19 0 -40 -9 -55 -25 -24 -23 -25 -28 -25 -175 l0
-150 -155 0 -155 0 0 150 c0 147 -1 152 -25 175 -15 16 -36 25 -55 25 -19 0
-40 -9 -55 -25z m1829 -529 c21 -16 47 -47 57 -70 18 -39 19 -85 19 -1011 0
-922 -1 -972 -19 -1010 -21 -46 -54 -79 -94 -94 -19 -8 -347 -11 -1038 -11
-850 0 -1014 2 -1037 14 -36 19 -78 65 -91 99 -8 19 -11 339 -11 1003 0 937 1
976 19 1012 22 42 43 64 86 86 27 14 139 16 1051 14 l1021 -3 37 -29z"/>
<path d="M5513 8325 c-39 -17 -73 -68 -73 -111 0 -47 38 -96 88 -114 37 -13
47 -13 84 0 111 39 117 181 11 226 -40 17 -69 17 -110 -1z"/>
<path d="M4450 7823 c-96 -268 -192 -534 -212 -590 l-37 -103 124 0 123 0 42
125 42 125 233 0 233 0 42 -125 42 -125 124 0 c68 0 124 2 124 4 0 2 -79 219
-176 482 -97 264 -193 526 -214 584 l-38 105 -138 3 -139 2 -175 -487z m401 0
c43 -131 79 -239 79 -240 0 -2 -75 -3 -166 -3 -129 0 -165 3 -162 13 3 6 40
117 83 245 43 128 80 230 82 228 3 -2 40 -112 84 -243z"/>
<path d="M5470 7555 l0 -425 108 0 107 0 0 425 0 425 -107 0 -108 0 0 -425z"/>
<path d="M2270 8172 c-25 -20 -25 -21 -28 -220 l-3 -201 -179 -3 c-204 -3
-216 -8 -257 -88 l-23 -44 0 -1676 c0 -1610 1 -1677 19 -1715 23 -49 74 -99
121 -118 19 -8 67 -20 107 -27 l72 -13 3 -261 c4 -290 6 -300 72 -374 20 -22
58 -49 84 -60 48 -21 59 -21 1326 -24 1265 -3 1278 -3 1292 -23 37 -53 56 -65
99 -65 37 0 47 5 76 38 32 36 35 37 118 44 47 3 624 7 1281 7 1180 1 1196 2
1240 22 55 25 95 62 123 114 21 37 22 58 27 309 l5 270 89 17 c125 25 194 76
225 168 8 25 11 482 11 1705 l0 1671 -23 40 c-14 26 -37 48 -67 63 -40 20 -58
22 -207 22 l-163 0 0 194 c0 184 -1 195 -22 221 l-22 28 -160 -6 c-288 -11
-652 -84 -691 -139 -18 -27 -19 -77 -2 -99 32 -42 50 -42 197 -4 136 35 355
70 474 77 l59 3 -2 -1665 c-1 -915 -4 -1666 -5 -1667 -2 -2 -79 -12 -172 -23
-614 -70 -1160 -263 -1646 -583 -151 -100 -373 -267 -482 -363 -48 -44 -110
-99 -137 -122 l-49 -44 0 1060 c0 1055 0 1059 -20 1077 -29 26 -85 25 -113 -3
l-22 -23 -5 -1055 -5 -1055 -35 37 c-94 98 -331 291 -525 426 -308 214 -681
394 -1040 501 -236 70 -536 134 -720 152 -33 3 -84 8 -112 11 l-53 5 0 1666 0
1666 103 -6 c133 -9 303 -39 443 -78 119 -34 150 -33 184 1 20 20 26 63 14 95
-10 25 -49 40 -204 78 -187 46 -320 66 -500 74 -136 5 -147 4 -170 -15z m-30
-2087 l0 -1493 25 -30 c24 -28 30 -30 127 -37 638 -41 1243 -247 1798 -610
119 -78 251 -175 237 -175 -3 0 -120 25 -259 55 -500 110 -2005 427 -2112 446
-48 8 -77 19 -93 35 l-23 23 0 1640 0 1640 143 3 c78 2 145 2 150 0 4 -2 7
-675 7 -1497z m5768 -154 l-3 -1643 -21 -17 c-14 -11 -101 -33 -235 -60 -328
-64 -1158 -240 -1712 -362 -273 -60 -502 -109 -509 -109 -37 0 286 218 503
340 441 247 957 401 1469 440 156 11 182 19 199 57 8 17 11 443 11 1513 l0
1489 143 3 c78 2 145 0 150 -3 4 -3 6 -744 5 -1648z m-5492 -1951 c132 -27
390 -81 574 -120 1240 -263 1394 -297 1495 -329 60 -19 59 -19 -1088 -20
-1236 -1 -1189 -3 -1217 48 -9 18 -15 471 -6 471 2 0 111 -22 242 -50z m5164
-185 c-5 -227 -6 -235 -28 -257 l-23 -23 -1162 -2 -1162 -2 60 19 c66 22 657
153 1415 314 272 58 578 123 680 144 102 22 194 40 205 41 20 1 20 -4 15 -234z"/>
<path d="M2836 6249 c-20 -16 -26 -29 -26 -58 0 -63 26 -77 158 -91 63 -6 150
-17 195 -26 400 -74 831 -308 1103 -598 69 -74 85 -86 112 -86 42 0 82 38 82
79 0 37 -50 101 -156 200 -333 311 -774 522 -1225 586 -149 21 -210 20 -243
-6z"/>
<path d="M6855 6253 c-235 -35 -499 -121 -704 -230 -216 -114 -353 -215 -534
-393 -112 -110 -127 -129 -127 -158 0 -43 38 -82 81 -82 26 0 50 19 158 123
187 181 344 292 556 393 245 116 450 171 713 194 97 9 109 12 130 35 29 35 29
79 -3 110 -21 22 -32 25 -97 24 -40 -1 -118 -8 -173 -16z"/>
<path d="M2835 5385 c-25 -24 -32 -65 -19 -100 11 -27 55 -42 149 -49 283 -23
594 -120 836 -262 139 -81 277 -190 406 -320 67 -67 132 -128 143 -134 47 -25
110 19 110 77 0 69 -230 289 -463 444 -310 205 -625 318 -1002 359 -126 14
-133 13 -160 -15z"/>
<path d="M6952 5399 c-497 -48 -937 -255 -1318 -622 -155 -149 -171 -182 -114
-239 48 -48 71 -37 207 100 348 350 753 546 1223 592 63 6 125 14 138 16 66
13 84 94 31 138 -33 28 -35 28 -167 15z"/>
<path d="M4263 2960 c-12 -5 -26 -18 -32 -29 -7 -12 -11 -117 -11 -288 l0
-268 -431 -275 c-238 -151 -446 -283 -463 -292 -17 -10 -53 -17 -82 -18 -45 0
-52 3 -65 26 -22 43 -106 111 -156 128 -183 63 -373 -72 -373 -265 0 -121 50
-210 146 -259 41 -21 63 -25 134 -25 95 0 138 17 199 77 32 31 81 119 81 146
0 8 19 12 59 12 33 0 71 4 86 10 14 5 223 135 463 288 240 153 454 288 474
301 20 12 49 36 63 52 l25 31 0 298 c0 164 -3 306 -6 315 -7 17 -55 45 -76 44
-7 0 -23 -4 -35 -9z m-1289 -1174 c49 -20 76 -61 76 -112 0 -36 -6 -51 -34
-82 -31 -33 -39 -37 -85 -37 -43 0 -55 5 -82 31 -68 68 -42 184 46 207 34 8
45 7 79 -7z"/>
<path d="M4919 2941 l-29 -29 0 -479 0 -478 -46 -24 c-59 -31 -118 -100 -138
-158 -36 -105 -9 -227 66 -300 59 -56 101 -75 179 -81 121 -8 222 47 277 152
22 43 27 64 27 131 0 70 -4 87 -30 134 -33 61 -92 115 -141 131 l-34 12 0 484
0 485 -25 24 c-33 33 -70 32 -106 -4z m106 -1155 c38 -16 75 -68 75 -104 0
-67 -62 -132 -126 -132 -37 0 -93 36 -112 70 -17 33 -9 105 14 132 21 23 69
47 97 48 10 0 33 -6 52 -14z"/>
<path d="M5589 2941 l-29 -29 0 -295 c0 -290 0 -295 23 -328 23 -34 109 -91
706 -467 313 -197 303 -192 377 -192 l61 0 22 -58 c40 -112 141 -182 263 -182
55 0 77 5 129 33 257 133 181 511 -107 535 -106 8 -208 -43 -264 -133 -20 -32
-25 -35 -72 -35 -48 0 -65 10 -508 291 l-459 291 -3 275 -3 275 -28 24 c-38
32 -72 31 -108 -5z m1501 -1169 c14 -10 31 -37 39 -59 13 -35 13 -46 0 -79
-17 -46 -69 -84 -113 -84 -73 0 -131 66 -123 138 3 24 13 52 23 64 44 49 122
58 174 20z"/>
</g>
</svg>
