<?xml version="1.0" standalone="no"?>
<!DOCTYPE svg PUBLIC "-//W3C//DTD SVG 20010904//EN"
 "http://www.w3.org/TR/2001/REC-SVG-20010904/DTD/svg10.dtd">
<svg version="1.0" xmlns="http://www.w3.org/2000/svg"
 width="472.000000pt" height="150.000000pt" viewBox="0 0 472.000000 150.000000"
 preserveAspectRatio="xMidYMid meet">

<g transform="translate(0.000000,150.000000) scale(0.100000,-0.100000)"
fill="#000000" stroke="none">
<path d="M512 1360 c-13 -6 -37 -20 -55 -33 -18 -13 -40 -22 -49 -20 -11 3
-18 -1 -18 -11 0 -9 4 -16 10 -16 6 0 5 -10 -2 -25 -7 -16 -19 -25 -35 -25
-27 0 -30 -15 -7 -28 12 -7 15 -17 9 -40 -3 -17 -12 -30 -18 -29 -6 1 -13 -7
-15 -17 -3 -14 0 -17 11 -13 20 8 32 -39 16 -59 -17 -21 4 -42 24 -26 11 9 18
8 32 -8 10 -11 13 -20 7 -20 -7 0 -12 -7 -12 -16 0 -12 6 -15 24 -10 16 4 29
0 41 -14 20 -23 11 -48 -11 -29 -21 17 -42 -4 -25 -24 16 -20 -8 -38 -39 -30
-20 5 -22 3 -17 -17 3 -13 1 -30 -5 -37 -7 -9 -6 -20 6 -38 9 -14 12 -25 6
-25 -5 0 -10 -7 -10 -16 0 -12 6 -15 22 -11 29 8 47 -8 40 -35 -4 -18 -2 -20
16 -16 13 4 29 -2 42 -14 25 -24 17 -40 -16 -32 -18 5 -24 2 -24 -10 0 -9 5
-16 10 -16 7 0 7 -7 0 -21 -8 -14 -15 -17 -24 -10 -17 14 -43 -3 -30 -21 5 -7
9 -35 8 -61 -2 -45 0 -48 19 -43 32 8 55 -9 50 -39 -6 -27 5 -33 25 -13 10 10
17 8 32 -8 l20 -20 -25 -24 c-22 -21 -28 -22 -35 -10 -7 12 -12 12 -21 3 -9
-9 -9 -15 0 -27 8 -10 9 -16 1 -21 -5 -3 -10 -17 -10 -31 0 -20 5 -24 29 -24
21 0 40 13 78 53 27 29 56 63 63 76 12 23 14 19 40 -60 41 -126 36 -119 90
-119 l48 0 25 68 c13 37 28 82 32 99 l7 33 40 -53 c53 -67 87 -96 116 -97 27
0 40 26 24 50 -8 13 -7 21 1 29 17 17 -7 38 -26 23 -11 -9 -19 -7 -36 11 -21
24 -21 24 -1 42 16 14 22 15 35 5 12 -10 16 -9 21 3 3 9 3 20 0 25 -10 16 21
33 47 27 25 -7 26 -6 23 45 -1 28 2 54 6 56 18 11 6 26 -17 22 -30 -6 -57 18
-36 32 19 11 3 32 -19 25 -28 -9 -35 14 -12 38 17 17 24 18 36 8 13 -11 17
-10 22 3 4 9 4 20 0 23 -12 12 17 33 39 27 20 -5 22 -2 23 43 0 26 -4 54 -10
61 -7 8 -7 12 1 12 6 0 11 7 11 16 0 12 -6 15 -22 11 -30 -8 -52 11 -37 30 18
21 -4 41 -25 23 -13 -10 -17 -9 -23 5 -9 24 23 46 55 38 23 -5 24 -4 19 19 -7
28 15 58 28 38 13 -21 27 -10 21 16 -9 33 1 64 20 64 10 0 14 7 12 18 -2 9 -9
16 -15 15 -16 -3 -29 60 -14 65 18 6 13 32 -7 32 -21 0 -51 42 -33 48 19 6 13
34 -6 30 -10 -2 -36 8 -58 23 -57 38 -96 44 -125 21 -27 -22 -24 -29 49 -124
26 -35 56 -79 66 -97 l17 -34 -68 -68 c-38 -38 -71 -69 -75 -69 -3 0 -9 48
-12 108 -9 150 -10 152 -64 152 l-46 0 7 -37 c41 -247 29 -517 -35 -805 -12
-54 -25 -98 -29 -98 -10 0 -47 164 -65 285 -23 148 -30 401 -16 523 7 57 15
110 18 118 4 11 -5 14 -40 14 -53 0 -53 -1 -62 -101 -3 -41 -8 -94 -11 -118
l-6 -44 -69 69 c-54 53 -68 73 -63 89 4 11 34 58 69 105 76 105 80 115 52 135
-24 17 -41 18 -75 5z m3 -49 c7 -12 -12 -24 -25 -16 -11 7 -4 25 10 25 5 0 11
-4 15 -9z m555 -6 c0 -8 -7 -15 -15 -15 -8 0 -15 7 -15 15 0 8 7 15 15 15 8 0
15 -7 15 -15z m-462 -596 l-3 -37 -64 58 -64 59 59 64 59 65 8 -86 c4 -48 6
-103 5 -123z m467 81 c0 -3 -29 -33 -65 -67 l-65 -61 7 112 c3 61 7 120 7 130
1 14 16 3 59 -44 31 -35 57 -66 57 -70z m-421 -366 c3 -8 3 -14 0 -14 -10 0
-134 94 -134 101 0 4 21 32 48 62 l47 55 17 -95 c9 -52 19 -101 22 -109z m385
86 c0 -3 -32 -29 -70 -58 -46 -34 -69 -47 -65 -35 6 20 36 190 36 205 0 5 22
-17 50 -49 27 -32 50 -60 49 -63z"/>
<path d="M1420 1110 c0 -128 12 -164 65 -186 49 -20 87 -17 126 9 45 30 58 71
58 190 1 91 0 97 -19 97 -19 0 -20 -7 -20 -109 0 -93 -3 -112 -20 -134 -27
-34 -70 -43 -109 -23 -45 24 -51 44 -51 160 0 88 -3 106 -15 106 -12 0 -15
-19 -15 -110z"/>
<path d="M1750 1070 c0 -108 3 -130 15 -130 11 0 15 21 17 106 l3 107 88 -107
c49 -58 95 -106 103 -106 11 0 14 24 14 130 0 108 -3 130 -15 130 -11 0 -15
-21 -17 -104 l-3 -105 -85 105 c-115 141 -120 140 -120 -26z"/>
<path d="M2072 1068 c2 -94 7 -133 16 -136 9 -3 12 28 12 132 0 115 -2 136
-15 136 -13 0 -15 -19 -13 -132z"/>
<path d="M2170 1198 c0 -15 108 -259 115 -259 10 0 117 252 110 259 -14 14
-34 -17 -69 -102 -21 -53 -40 -95 -42 -93 -2 1 -21 45 -43 97 -23 57 -45 96
-55 98 -9 2 -16 2 -16 0z"/>
<path d="M2452 1068 l3 -133 73 -3 c59 -2 72 0 72 13 0 12 -13 15 -61 15 l-60
0 3 48 3 47 58 3 c76 4 73 22 -4 22 l-60 0 3 48 3 47 58 3 c84 4 70 22 -18 22
l-76 0 3 -132z"/>
<path d="M2690 1065 c0 -83 4 -135 10 -135 6 0 10 26 10 59 0 33 5 63 11 66
24 16 60 -8 99 -65 22 -33 48 -60 56 -60 17 0 17 1 -37 81 -38 56 -38 57 -19
74 26 23 25 70 0 95 -15 15 -33 20 -75 20 l-55 0 0 -135z m98 99 c43 -30 20
-75 -40 -77 -30 -2 -33 1 -36 31 -2 19 -1 40 2 48 7 19 46 18 74 -2z"/>
<path d="M2956 1184 c-22 -22 -30 -59 -16 -83 6 -12 33 -32 60 -46 38 -19 50
-31 50 -48 0 -46 -53 -63 -98 -31 -20 14 -22 14 -22 -4 0 -21 38 -42 74 -42
39 0 76 37 76 75 0 36 -24 62 -79 85 -39 16 -49 45 -25 71 18 20 37 21 77 4
12 -5 17 -3 17 8 0 30 -87 38 -114 11z"/>
<path d="M3160 1064 c0 -104 3 -135 13 -132 8 3 13 42 15 136 2 113 0 132 -13
132 -13 0 -15 -21 -15 -136z"/>
<path d="M3272 1068 l3 -133 47 -3 c135 -9 215 74 177 182 -22 62 -65 86 -156
86 l-74 0 3 -132z m164 87 c51 -35 55 -122 9 -165 -19 -18 -40 -25 -85 -28
l-60 -4 0 106 0 106 58 0 c34 0 66 -6 78 -15z"/>
<path d="M3840 1064 l0 -137 74 6 c85 6 122 25 142 74 20 48 17 95 -9 134 -31
46 -61 59 -139 59 l-68 0 0 -136z m165 83 c20 -17 28 -35 32 -70 5 -43 3 -49
-30 -82 -31 -31 -41 -35 -86 -35 l-51 0 0 105 0 105 54 0 c43 0 61 -5 81 -23z"/>
<path d="M3597 1075 c-26 -63 -50 -122 -53 -130 -4 -9 0 -15 9 -15 9 0 23 19
33 45 l17 45 52 0 52 0 17 -45 c10 -25 24 -45 32 -45 8 0 14 3 13 8 -1 19
-105 246 -114 249 -6 1 -31 -49 -58 -112z m78 19 c21 -51 20 -54 -20 -54 -19
0 -35 4 -35 9 0 13 29 81 35 81 3 0 12 -16 20 -36z"/>
<path d="M1430 590 l0 -221 138 3 137 3 0 30 0 30 -102 3 -103 3 0 59 0 60 95
0 95 0 0 35 0 35 -95 0 -95 0 0 60 0 60 100 0 100 0 0 30 0 30 -135 0 -135 0
0 -220z"/>
<path d="M2202 593 l3 -218 95 0 c113 0 138 6 173 41 50 50 29 159 -34 179
l-21 7 21 19 c44 41 38 126 -12 163 -23 17 -46 22 -128 24 l-99 4 2 -219z
m185 131 c34 -46 -3 -94 -72 -94 l-45 0 0 53 c0 30 3 57 8 61 13 14 95 -1 109
-20z m21 -180 c26 -18 29 -60 5 -86 -12 -14 -31 -18 -80 -18 l-63 0 0 60 0 60
58 0 c36 0 66 -6 80 -16z"/>
<path d="M1762 578 l3 -203 138 -3 137 -3 0 30 0 30 -102 3 -103 3 -3 173 -2
172 -35 0 -35 0 2 -202z"/>
<path d="M2665 761 c-141 -65 -166 -242 -49 -339 48 -40 103 -56 172 -49 166
17 248 209 141 331 -63 73 -178 97 -264 57z m162 -58 c40 -18 70 -61 79 -112
10 -49 -25 -111 -78 -141 -102 -58 -230 27 -215 143 14 100 120 155 214 110z"/>
<path d="M3084 766 c-42 -19 -64 -52 -64 -96 0 -43 21 -68 94 -115 29 -18 58
-40 65 -49 33 -40 -24 -87 -82 -67 -17 6 -41 21 -54 33 l-23 21 0 -41 c0 -55
29 -75 108 -76 66 0 103 19 122 64 26 62 -4 116 -95 172 -22 14 -49 35 -59 47
-18 20 -18 22 -1 41 23 25 60 25 108 0 l37 -20 0 35 c0 24 -6 37 -20 45 -34
18 -103 21 -136 6z"/>
<path d="M3435 768 c-76 -27 -145 -119 -145 -193 0 -102 44 -154 191 -229 128
-65 180 -73 217 -33 12 13 22 25 22 28 0 2 -24 4 -53 5 -28 0 -60 5 -71 10
-16 10 -13 14 25 36 107 63 136 186 69 292 -50 78 -164 116 -255 84z m131 -57
c164 -74 86 -310 -91 -277 -46 9 -102 65 -111 112 -17 89 55 179 146 183 8 0
33 -8 56 -18z"/>
<path d="M3772 627 c3 -138 6 -156 26 -184 67 -94 260 -86 307 13 11 24 15 67
15 178 l0 146 -30 0 -30 0 0 -141 0 -141 -29 -29 c-25 -24 -38 -29 -78 -29
-45 0 -87 17 -105 44 -4 6 -8 75 -8 154 l0 142 -36 0 -36 0 4 -153z"/>
<path d="M4190 580 l0 -200 135 0 135 0 0 25 0 25 -100 0 -100 0 0 60 0 60 95
0 95 0 0 30 0 30 -95 0 -95 0 0 55 0 55 101 0 100 0 -3 28 -3 27 -132 3 -133
3 0 -201z"/>
</g>
</svg>
